<?xml version="1.0" encoding="iso-8859-1"?>
<!-- Generator: Adobe Illustrator 19.0.0, SVG Export Plug-In . SVG Version: 6.00 Build 0)  -->
<svg version="1.1" id="Capa_1" xmlns="http://www.w3.org/2000/svg" xmlns:xlink="http://www.w3.org/1999/xlink" x="0px" y="0px"
	 viewBox="0 0 60 60" style="enable-background:new 0 0 60 60;" xml:space="preserve">
<g>
	<g>
		<path d="M59,0H1C0.4,0,0,0.4,0,1v50v8c0,0.6,0.4,1,1,1h58c0.6,0,1-0.4,1-1v-8V1C60,0.4,59.6,0,59,0z M39,39v11h-4V39h-2v11H21V39
			h-2v11H7V21h15v-2H7v-3h22v3h-3c-0.6,0-1,0.4-1,1v8c0,0.6,0.4,1,1,1h1v3c0,0.6,0.4,1,1,1h4c0.6,0,1-0.4,1-1v-3h1c0.6,0,1-0.4,1-1
			v-8c0-0.6-0.4-1-1-1h-3v-3h22v3H38v2h15v29H41V39H39z M2,11h3v39H2V11z M53,14H7v-3h46V14z M29,29h2v2h-2V29z M32,27h-4h-1v-2h3
			v-2h-3v-2h6v6H32z M55,11h3v39h-3V11z M58,2v7H2V2H58z M58,58H2v-6h18h14h6h18V58z"/>
		<rect x="4" y="54" width="4" height="2"/>
		<rect x="11" y="54" width="4" height="2"/>
		<rect x="18" y="54" width="4" height="2"/>
		<rect x="26" y="54" width="30" height="2"/>
		<rect x="19" y="35" width="2" height="2"/>
		<rect x="23" y="35" width="2" height="2"/>
		<rect x="27" y="35" width="2" height="2"/>
		<rect x="31" y="35" width="2" height="2"/>
		<rect x="39" y="35" width="2" height="2"/>
		<rect x="35" y="35" width="2" height="2"/>
		<rect x="5" y="5" width="6" height="2"/>
		<rect x="13" y="5" width="6" height="2"/>
		<rect x="21" y="5" width="6" height="2"/>
		<rect x="54" y="5" width="2" height="2"/>
		<rect x="50" y="5" width="2" height="2"/>
		<rect x="46" y="5" width="2" height="2"/>
		<rect x="19" y="24" width="2" height="2"/>
		<rect x="15" y="24" width="2" height="2"/>
		<rect x="11" y="24" width="2" height="2"/>
		<rect x="15" y="27" width="2" height="2"/>
		<rect x="19" y="27" width="2" height="2"/>
		<rect x="19" y="30" width="2" height="2"/>
		<rect x="39" y="24" width="2" height="2"/>
		<rect x="43" y="24" width="2" height="2"/>
		<rect x="47" y="24" width="2" height="2"/>
		<rect x="43" y="27" width="2" height="2"/>
		<rect x="39" y="27" width="2" height="2"/>
		<rect x="39" y="30" width="2" height="2"/>
	</g>
</g>
<g>
</g>
<g>
</g>
<g>
</g>
<g>
</g>
<g>
</g>
<g>
</g>
<g>
</g>
<g>
</g>
<g>
</g>
<g>
</g>
<g>
</g>
<g>
</g>
<g>
</g>
<g>
</g>
<g>
</g>
</svg>
