<?xml version="1.0" standalone="no"?>
<!DOCTYPE svg PUBLIC "-//W3C//DTD SVG 20010904//EN"
 "http://www.w3.org/TR/2001/REC-SVG-20010904/DTD/svg10.dtd">
<svg version="1.0" xmlns="http://www.w3.org/2000/svg"
 width="700.000000pt" height="700.000000pt" viewBox="0 0 700.000000 700.000000"
 preserveAspectRatio="xMidYMid meet">
<metadata>
Created by potrace 1.14, written by Peter Selinger 2001-2017
</metadata>
<g transform="translate(0.000000,700.000000) scale(0.100000,-0.100000)"
fill="#000000" stroke="none">
<path d="M6877 6994 c-1 -1 -31 -4 -67 -7 -65 -6 -188 -22 -245 -32 -16 -3
-46 -8 -65 -11 -461 -79 -931 -223 -1473 -451 -203 -85 -683 -324 -857 -427
-30 -18 -95 -56 -145 -85 -118 -69 -158 -94 -361 -227 -156 -102 -482 -329
-494 -344 -3 -4 -32 -26 -65 -51 -33 -24 -66 -49 -75 -56 -8 -7 -62 -49 -120
-95 -58 -46 -110 -87 -116 -93 -6 -5 -29 -25 -52 -43 -23 -19 -51 -43 -64 -53
-19 -18 -32 -19 -112 -14 -50 3 -120 8 -156 10 -36 2 -112 7 -170 11 -58 3
-130 8 -160 9 -30 2 -107 7 -170 11 -63 3 -125 7 -137 8 -17 1 -129 -84 -197
-150 -7 -6 -91 -80 -187 -164 -95 -84 -187 -164 -204 -179 -100 -88 -203 -178
-224 -196 -13 -11 -29 -25 -35 -30 -6 -6 -65 -58 -131 -115 -66 -58 -122 -107
-125 -110 -3 -3 -110 -97 -238 -209 -128 -112 -232 -204 -230 -206 2 -1 41 -5
88 -8 47 -4 96 -9 110 -11 14 -3 52 -10 85 -15 360 -64 763 -215 1108 -415 49
-28 100 -57 114 -64 24 -14 25 -15 17 -105 -9 -122 -12 -169 -13 -249 -1 -54
-4 -68 -16 -68 -29 0 -303 -79 -402 -116 -482 -179 -713 -435 -894 -991 -17
-51 -32 -103 -34 -115 -3 -13 -9 -34 -14 -48 -11 -27 -67 -290 -76 -355 -3
-22 -10 -62 -15 -90 -5 -27 -12 -70 -14 -95 -3 -25 -7 -61 -10 -80 -8 -59 -15
-122 -22 -200 -3 -41 -8 -91 -10 -110 -2 -19 -6 -110 -10 -201 l-6 -166 68 2
c59 2 237 12 354 20 19 1 60 6 90 9 30 4 71 8 90 10 33 3 92 11 170 22 19 2
51 7 70 10 19 2 60 9 90 14 522 93 886 230 1130 425 208 166 366 442 485 849
19 66 35 128 35 138 0 15 9 18 58 19 71 1 132 4 247 13 l90 7 54 -88 c110
-182 255 -497 329 -718 24 -71 71 -234 77 -267 3 -13 7 -34 10 -48 9 -40 33
-162 39 -200 3 -19 9 -69 12 -110 8 -105 9 -107 46 -63 53 61 341 391 409 468
15 17 79 91 144 165 65 74 129 149 144 165 15 17 60 68 101 115 41 47 87 99
101 115 15 17 80 91 144 165 65 74 144 164 176 200 100 112 109 124 105 140
-3 8 -7 71 -11 140 -3 69 -8 141 -10 160 -1 19 -6 91 -10 160 -7 133 -9 166
-20 326 l-6 102 33 38 c18 22 35 41 38 44 5 5 86 104 103 125 4 6 45 57 91
115 624 790 1140 1718 1437 2587 46 136 133 425 143 476 3 12 18 76 35 142 16
66 32 134 35 150 8 46 25 138 30 160 4 23 23 148 31 215 3 25 7 61 10 80 2 19
7 74 10 123 l6 87 -61 -2 c-33 -1 -62 -3 -63 -4z"/>
</g>
</svg>
